inDegrees=yes
name=ik_MT_012005D6_009-001_orientations
DataType=double
version=3
OpenSimVersion=4.2-2021-01-13-642235af4
endheader
time	pelvis_tilt	pelvis_list	pelvis_rotation	pelvis_tx	pelvis_ty	pelvis_tz	hip_flexion_r	hip_adduction_r	hip_rotation_r	knee_angle_r	knee_angle_r_beta	ankle_angle_r	subtalar_angle_r	mtp_angle_r	hip_flexion_l	hip_adduction_l	hip_rotation_l	knee_angle_l	knee_angle_l_beta	ankle_angle_l	subtalar_angle_l	mtp_angle_l	lumbar_extension	lumbar_bending	lumbar_rotation	arm_flex_r	arm_add_r	arm_rot_r	elbow_flex_r	pro_sup_r	wrist_flex_r	wrist_dev_r	arm_flex_l	arm_add_l	arm_rot_l	elbow_flex_l	pro_sup_l	wrist_flex_l	wrist_dev_l
13.06999999999977	301.7959312656235	97.73279358743144	50.31067001446885	0	0.9399999999999999	0	20.13286275714642	-10.14398094140036	0.2628440125189229	6.891195454905686	0.1202740500865726	-8.814373051689504	0	0	-10.88297632580045	1.822542825277245	8.363563724361365	29.77146890700867	0.5196101555824189	5.366521777773856	0	0	-10.35060979611586	-4.03351980360962	-5.121765164301124	0	-13.87763394471591	0	74.51746534219252	44.9997729581259	0	0	0	-13.87763394471591	0	74.51746534219252	44.9997729581259	0	0
13.07999999999977	301.7104654436991	97.25104689117933	50.18093239993102	0	0.9399999999999999	0	20.63336358092182	-9.609782446004948	0.1339080630873974	8.163532881876787	0.1424805273835713	-9.675866964661004	0	0	-10.58388451538585	1.084720222945187	7.668175230125842	30.5233879308087	0.532733618256111	3.927774293526034	0	0	-9.927890366760634	-3.778886947231386	-4.436832473363945	0	-13.88659562266709	0	74.52375573418084	44.99977885334991	0	0	0	-13.88659562266709	0	74.52375573418084	44.99977885334991	0	0
13.08999999999977	294.9396741462454	96.73687170150289	56.7935230643813	0	0.9399999999999999	0	20.80725882643614	-8.502294278316025	-0.3192483280248	9.556391771534162	0.1667905010237649	-10.28312996500711	0	0	-10.65117312513165	-0.3274982934016694	6.873632946323753	31.34653151020619	0.5471001839332486	2.212032721195382	0	0	-9.919464703681337	-2.839646509794578	-3.75227366165431	0	-13.90281404097505	0	74.53618562642097	44.99979266803085	0	0	0	-13.90281404097505	0	74.53618562642097	44.99979266803085	0	0
13.09999999999977	294.7718072533811	96.24777899846546	57.04124423621384	0	0.9399999999999999	0	21.46820830188336	-7.903336282892333	-0.6682833420697666	10.81618092454922	0.1887779696247883	-10.03988725314299	0	0	-10.0170844262371	-1.091406276095054	6.325236353867843	32.49808498311002	0.5671985835481956	0.4075288078387619	0	0	-9.411032484671345	-2.531628616973578	-3.44776478486064	0	-13.90354025656857	0	74.53678557973375	44.99979340878756	0	0	0	-13.90354025656857	0	74.53678557973375	44.99979340878756	0	0
13.10999999999976	286.4493480597355	95.88595615250966	65.5183805793672	0	0.9399999999999999	0	21.27726563853221	-6.842605870664243	-1.132229639616911	11.7908090098978	0.2057884386965293	-9.652238267648489	0	0	-9.747089650150434	-2.601896003900188	5.747008890492086	33.86084742308722	0.5909832750483094	-1.561079064715874	0	0	-9.383127659211677	-1.521977005061227	-3.158134176185605	0	-13.91381807127105	0	74.54526767551107	44.99980379126342	0	0	0	-13.91381807127105	0	74.54526767551107	44.99980379126342	0	0
13.11999999999976	286.3435565777099	95.50653333736931	65.92790636739625	0	0.9399999999999999	0	21.19659994282149	-6.649114465457077	-1.216755870604356	12.64260941428254	0.2206551603228621	-8.876701793474799	0	0	-8.907109777493526	-3.358063696933103	5.274823039845216	35.29027521361495	0.615931496412526	-3.725111172563867	0	0	-8.916663410748155	-1.176019437836297	-3.065248241049442	0	-13.91436718211338	0	74.54571777278719	44.99980432982726	0	0	0	-13.91436718211338	0	74.54571777278719	44.99980432982726	0	0
13.12999999999976	277.6148020878393	95.22313076881495	75.0640678863159	0	0.9399999999999999	0	20.54648778908206	-5.781704749397232	-1.72344484923134	13.4634655351768	0.2349818023176156	-7.729715417715659	0	0	-8.293772795114483	-4.839746706674041	4.713056895660277	36.86095139600018	0.6433449672778033	-6.047204719493547	0	0	-8.811635562488624	-0.1390521039426596	-2.981586067281562	0	-13.92811843693453	0	74.55694682604721	44.9998175518872	0	0	0	-13.92811843693453	0	74.55694682604721	44.9998175518872	0	0
13.13999999999976	277.8003329275004	94.95569040998947	75.40763240687389	0	0.9399999999999999	0	20.16118745796065	-5.605475739488135	-2.106169741023272	13.99233601587835	0.2442123335224628	-6.813729317470409	0	0	-7.227797420895289	-5.446119267968686	4.20349945219871	38.66631147862925	0.6748544449037576	-8.313024162947324	0	0	-8.457495361216008	0.1074141836110916	-3.074293718565644	0	-13.92876670187423	0	74.55747159120601	44.99981815135639	0	0	0	-13.92876670187423	0	74.55747159120601	44.99981815135639	0	0
13.14999999999976	277.997338497117	94.63874646106548	75.85645581537972	0	0.9399999999999999	0	19.77431420217719	-5.513587334392576	-2.674814820947387	14.10252298921848	0.2461354590000553	-6.290699224274692	0	0	-5.953556039000853	-6.071568200012042	3.735166280092821	40.68901034948315	0.7101571999765296	-10.44437283870326	0	0	-8.088357896472589	0.3828666664306853	-3.234577138779917	0	-13.92939632346391	0	74.55798092560539	44.99981873191552	0	0	0	-13.92939632346391	0	74.55798092560539	44.99981873191552	0	0
13.15999999999976	278.2310385900406	94.31622586891979	76.32693147489965	0	0.9399999999999999	0	19.31332196417659	-5.460551926932008	-3.375057932224448	13.94373460535528	0.2433640788877219	-5.883632219502981	0	0	-4.521935091091036	-6.734934438266541	3.365223676999986	42.84537777739253	0.7477929114763097	-12.47157089904381	0	0	-7.758378343795978	0.6614463278040242	-3.408709901253553	0	-13.93005331764027	0	74.55851207258279	44.99981933605505	0	0	0	-13.93005331764027	0	74.55851207258279	44.99981933605505	0	0
13.16999999999976	278.5474569609236	94.01698564299782	76.755214760914	0	0.9399999999999999	0	18.75030715039854	-5.489693721736689	-4.149595211442977	13.68234459082155	0.2388019625022724	-5.534722311615634	0	0	-2.975180400318078	-7.418777861899163	3.210588607184762	45.12032503500393	0.7874982314308443	-14.33169942408543	0	0	-7.483660137812747	0.91475475613805	-3.594593704423283	0	-13.93058924178516	0	74.55894496084963	44.99981982725207	0	0	0	-13.93058924178516	0	74.55894496084963	44.99981982725207	0	0
13.17999999999976	278.9044628696066	93.71890119840606	77.13506989100519	0	0.9399999999999999	0	18.15629336443896	-5.545011375636842	-4.904158487342698	13.36076048638999	0.2331892610578643	-5.184443932611751	0	0	-1.309755159629024	-8.083163459010057	3.226002010014903	47.45568365698252	0.8282579285992082	-15.97317422828085	0	0	-7.286424680177889	1.127970483623971	-3.70498785832561	0	-13.93106168480659	0	74.55932628941225	44.99982025904617	0	0	0	-13.93106168480659	0	74.55932628941225	44.99982025904617	0	0
13.18999999999976	279.2695593576391	93.43211125687354	77.47354109264913	0	0.9399999999999999	0	17.55909488954647	-5.567932502524551	-5.570482833163046	12.97928016008168	0.2265311733322019	-4.907924500890174	0	0	0.4376989874348732	-8.670851673602888	3.395410592153735	49.76322200878923	0.8685320704542786	-16.85376155675677	0	0	-7.148787927714492	1.293686431868978	-3.724326021438806	0	-13.93157802030554	0	74.5597429209693	44.99982073015206	0	0	0	-13.93157802030554	0	74.5597429209693	44.99982073015206	0	0
13.19999999999976	279.6106087692872	93.19797237474546	77.7619690490683	0	0.9399999999999999	0	16.92914866288461	-5.553649415322575	-6.066590543464222	12.51267972773452	0.2183874594965151	-4.681726204895678	0	0	2.128144856728607	-9.032462169101635	3.45360559040999	51.94129998798459	0.9065467025564221	-16.27384230361231	0	0	-7.116053492580966	1.401178417693859	-3.605381785032481	0	-13.93198787062101	0	74.56007354613089	44.99982110353464	0	0	0	-13.93198787062101	0	74.56007354613089	44.99982110353464	0	0
13.20999999999976	279.9325383313964	92.95168512615972	78.01432927053891	0	0.9399999999999999	0	16.41444718087623	-5.521213406846106	-6.44100510153919	12.11366726153103	0.2114233782047615	-4.531197891624808	0	0	3.784479849310195	-9.189366214124357	3.445879670788812	54.0648875151489	0.9436102968597239	-14.57162533562512	0	0	-7.088261820981465	1.503435467833449	-3.420308763293729	0	-13.93247149155029	0	74.56046369924135	44.9998215437858	0	0	0	-13.93247149155029	0	74.56046369924135	44.9998215437858	0	0
13.21999999999976	280.2138172604314	92.77108915444373	78.2339868009462	0	0.9399999999999999	0	15.89601155445458	-5.483600078491442	-6.666457570166803	11.82224245775938	0.2063370558569678	-4.241353993025641	0	0	5.204542324203583	-9.165601358742103	3.429230353864737	55.93863035097969	0.9763132786806268	-12.36704745209336	0	0	-7.149135685024197	1.573581183424646	-3.104811700586479	0	-13.93284443882237	0	74.56076440829339	44.99982188257803	0	0	0	-13.93284443882237	0	74.56076440829339	44.99982188257803	0	0
13.22999999999976	280.4815858926133	92.60317459218052	78.42252113314487	0	0.9399999999999999	0	15.48972834694898	-5.446125200339329	-6.911814333471169	11.67790861654807	0.2038179551057799	-4.026953898396684	0	0	6.614258318048143	-9.064917917763642	3.40139198509118	57.68491139618945	1.006791632584705	-10.3103664977832	0	0	-7.251776643978562	1.638721341795366	-2.731694637657067	0	-13.93324055677523	0	74.56108370305985	44.99982224187771	0	0	0	-13.93324055677523	0	74.56108370305985	44.99982224187771	0	0
13.23999999999976	280.7328251437355	92.47335506361992	78.55622076184989	0	0.9399999999999999	0	15.10951090166641	-5.417981251994023	-7.15190095580352	11.59875955638716	0.2024365434061129	-3.820043250656926	0	0	7.957620582294805	-8.959966530908565	3.265897895717395	59.13590236119543	1.032116202340749	-8.626074403264031	0	0	-7.406330639004724	1.698998182425902	-2.26934436206199	0	-13.93367568593073	0	74.56143434971025	44.99982263596506	0	0	0	-13.93367568593073	0	74.56143434971025	44.99982263596506	0	0
13.24999999999976	280.9734400342038	92.40418583495588	78.63877156184748	0	0.9399999999999999	0	14.70840980518386	-5.386071383517177	-7.389733133985147	11.56837111690962	0.2019061650826867	-3.559010556083523	0	0	9.215642835194091	-8.915211770585962	3.03968577802198	60.27904202776149	1.052067753332477	-7.30947932795666	0	0	-7.643623469351362	1.750442874572617	-1.747786430661243	0	-13.93407726476655	0	74.56175782246625	44.99982299898655	0	0	0	-13.93407726476655	0	74.56175782246625	44.99982299898655	0	0
13.25999999999976	281.2353759244512	92.36526572770637	78.65734585667366	0	0.9399999999999999	0	14.32311426017958	-5.370201201283876	-7.662429482087002	11.57566527433334	0.2020334721458895	-3.34112559601327	0	0	10.44257270751444	-8.877141731604548	2.678240295426561	61.1665839461426	1.067558282057694	-6.350785218158003	0	0	-7.920492449684016	1.790557735508714	-1.207129477558543	0	-13.93451052692935	0	74.56210670544529	44.99982339001544	0	0	0	-13.93451052692935	0	74.56210670544529	44.99982339001544	0	0
13.26999999999976	281.5506480187563	92.35068072808856	78.62154800656315	0	0.9399999999999999	0	13.89726164812959	-5.368760532061558	-8.041571088572788	11.55768490007334	0.2017196554143116	-3.138789404472006	0	0	11.61064123225439	-8.808772397718153	2.216560604981597	61.78210904814681	1.078301221716342	-5.673207051991133	0	0	-8.212642928775779	1.838950980908923	-0.6793480444404481	0	-13.93495735258673	0	74.56246634563021	44.9998237925013	0	0	0	-13.93495735258673	0	74.56246634563021	44.9998237925013	0	0
